HIERARCHY
ROOT Hips
{
	OFFSET	0.00	0.00	0.00
	CHANNELS 6 Xposition Yposition Zposition Zrotation Xrotation Yrotation
	JOINT LeftUpLeg
	{
		OFFSET	 0.126116	-0.014019	-0.065224
		CHANNELS 3 Zrotation Xrotation Yrotation
		JOINT LeftLeg
		{
			OFFSET	 0.000000	 0.000000	 0.569914
			CHANNELS 3 Zrotation Xrotation Yrotation
			JOINT LeftFoot
			{
				OFFSET	 0.000000	 0.000000	 0.544423
				CHANNELS 3 Zrotation Xrotation Yrotation
				JOINT LeftToeBase
				{
					OFFSET	 0.000000	 0.000000	 0.207117
					CHANNELS 3 Zrotation Xrotation Yrotation
					End Site
					{
						OFFSET	 0.000000	 0.000000	 0.207117
					}
				}
			}
		}
	}
	JOINT RightUpLeg
	{
		OFFSET	-0.124023	-0.008373	-0.065224
		CHANNELS 3 Zrotation Xrotation Yrotation
		JOINT RightLeg
		{
			OFFSET	 0.000000	 0.000000	 0.570047
			CHANNELS 3 Zrotation Xrotation Yrotation
			JOINT RightFoot
			{
				OFFSET	 0.000000	 0.000000	 0.544354
				CHANNELS 3 Zrotation Xrotation Yrotation
				JOINT RightToeBase
				{
					OFFSET	 0.000000	 0.000000	 0.207540
					CHANNELS 3 Zrotation Xrotation Yrotation
					End Site
					{
						OFFSET	 0.000000	 0.000000	 0.207540
					}
				}
			}
		}
	}
	JOINT Spine
	{
		OFFSET	 0.000184	-0.007763	 0.117403
		CHANNELS 3 Zrotation Xrotation Yrotation
		JOINT Spine1
		{
			OFFSET	 0.000000	 0.000000	 0.137269
			CHANNELS 3 Zrotation Xrotation Yrotation
			JOINT Spine2
			{
				OFFSET	 0.000000	 0.000000	 0.156879
				CHANNELS 3 Zrotation Xrotation Yrotation
				JOINT LeftShoulder
				{
					OFFSET	 0.080501	-0.002496	 0.160144
					CHANNELS 3 Zrotation Xrotation Yrotation
					JOINT LeftArm
					{
						OFFSET	 0.000000	 0.000000	 0.164363
						CHANNELS 3 Zrotation Xrotation Yrotation
						JOINT LeftForeArm
						{
							OFFSET	 0.000000	 0.000000	 0.364576
							CHANNELS 3 Zrotation Xrotation Yrotation
							JOINT LeftHand
							{
								OFFSET	 0.000000	 0.000000	 0.360812
								CHANNELS 3 Zrotation Xrotation Yrotation
								JOINT LeftHandIndex1
								{
									OFFSET	 0.000000	 0.000000	 0.086006
									CHANNELS 3 Zrotation Xrotation Yrotation
									JOINT LeftHandIndex2
									{
										OFFSET	 0.000000	 0.000000	 0.047236
										CHANNELS 3 Zrotation Xrotation Yrotation
										JOINT LeftHandIndex3
										{
											OFFSET	-0.004284	-0.000551	 0.038166
											CHANNELS 3 Zrotation Xrotation Yrotation
											End Site
											{
												OFFSET	-0.004284	-0.000551	 0.038166
											}
										}
									}
								}
							}
						}
					}
				}
				JOINT Neck
				{
					OFFSET	 0.000000	 0.000000	 0.176489
					CHANNELS 3 Zrotation Xrotation Yrotation
					JOINT Head
					{
						OFFSET	 0.000000	-0.001747	 0.077940
						CHANNELS 3 Zrotation Xrotation Yrotation
						End Site
						{
							OFFSET	 0.000000	-0.001747	 0.077940
						}
					}
				}
				JOINT RightShoulder
				{
					OFFSET	-0.080363	 0.000306	 0.159706
					CHANNELS 3 Zrotation Xrotation Yrotation
					JOINT RightArm
					{
						OFFSET	 0.000000	 0.000000	 0.164196
						CHANNELS 3 Zrotation Xrotation Yrotation
						JOINT RightForeArm
						{
							OFFSET	 0.000000	 0.000000	 0.365611
							CHANNELS 3 Zrotation Xrotation Yrotation
							JOINT RightHand
							{
								OFFSET	 0.000000	 0.000000	 0.360648
								CHANNELS 3 Zrotation Xrotation Yrotation
								JOINT RightHandIndex1
								{
									OFFSET	 0.000000	 0.000000	 0.069977
									CHANNELS 3 Zrotation Xrotation Yrotation
									JOINT RightHandIndex2
									{
										OFFSET	 0.000000	 0.000000	 0.052305
										CHANNELS 3 Zrotation Xrotation Yrotation
										JOINT RightHandIndex3
										{
											OFFSET	 0.009002	-0.000782	 0.042196
											CHANNELS 3 Zrotation Xrotation Yrotation
											End Site
											{
												OFFSET	 0.009002	-0.000782	 0.042196
											}
										}
									}
								}
							}
						}
					}
				}
			}
		}
	}
}
MOTION
Frames:    5
Frame Time: 0.03333334
-0.000582	 0.009783	 1.266820	 0.003212	 0.003944	-0.139169	 18.787870	-4.078566	 176.078800	 1.441406	-14.271490	-0.838458	-9.594051	 71.125660	 3.749116	-2.385833	 28.452760	 0.000004	-18.903350	-4.208132	-175.779600	-1.422552	-14.673520	 0.847262	 9.750798	 71.631290	-4.066236	 2.384658	 28.388730	 0.000004	 31.556560	 2.740010	-0.058955	 1.634027	 3.643531	 0.652624	-4.913653	-4.537514	-1.076490	-91.776240	 78.527420	-180.000000	 41.901110	 29.860790	-54.619590	-25.576350	 3.110606	-9.252571	-47.133070	-1.036021	-4.817589	-2.635965	 4.993658	 6.788941	-5.165319	 0.784187	 3.516649	-5.225038	 0.466231	 0.424329	-0.000002	-3.783157	-0.089647	-4.769597	 4.831202	 0.201308	 89.782200	 78.203900	 179.999900	-1.110894	 11.890140	 112.970400	-16.884790	 2.803439	 9.383480	 21.410810	-4.748598	-4.878437	 6.112037	 4.509576	-0.364401	 4.968462	 1.518543	-9.347576	 5.168945	 0.703820	 2.021906
-0.000593	 0.007822	 1.267312	 0.003207	 0.003944	-0.139169	 18.803080	-3.843097	 176.055900	 1.447922	-13.832410	-0.811611	-9.474756	 70.927090	 3.622939	-2.385833	 28.452760	 0.000004	-18.924130	-3.859920	-175.729100	-1.430387	-14.151020	 0.815804	 9.703022	 71.458910	-4.016649	 2.384658	 28.388730	 0.000004	 34.038930	 2.740011	-0.058954	 1.634025	 3.643530	 0.652665	-4.913649	-4.537510	-1.076510	-91.776210	 78.527450	-180.000000	 41.931700	 29.889910	-54.682180	-22.553670	 2.195045	-7.806788	-46.350390	 0.058381	-4.437931	-2.635965	 4.993658	 6.788941	-5.165319	 0.784187	 3.516649	-5.225038	 0.466231	 0.424329	-0.000002	-3.783157	-0.089647	-4.769598	 4.831200	 0.201308	 89.782160	 78.203900	 179.999900	-1.163169	 12.013320	 113.000200	-20.016280	 1.881060	 7.919015	 20.831400	-3.635280	-5.312379	 6.112037	 4.509576	-0.364401	 4.968462	 1.518543	-9.347576	 5.168945	 0.703820	 2.021906
-0.000574	 0.005980	 1.267637	 0.003207	 0.003944	-0.139169	 18.814070	-3.673765	 176.038100	 1.452332	-13.526130	-0.792949	-9.397614	 70.781610	 3.541824	-2.385833	 28.452760	 0.000004	-18.940540	-3.581593	-175.685300	-1.436067	-13.758030	 0.792238	 9.688901	 71.332990	-4.002916	 2.384658	 28.388730	 0.000004	 35.554590	 2.740011	-0.058954	 1.634026	 3.643529	 0.652665	-4.913651	-4.537509	-1.076510	-91.776190	 78.527450	-180.000000	 41.990370	 29.944100	-54.800850	-19.521110	 1.449211	-6.307127	-45.532620	 0.868448	-4.176269	-2.635965	 4.993658	 6.788941	-5.165319	 0.784187	 3.516649	-5.225038	 0.466231	 0.424329	-0.000002	-3.783157	-0.089647	-4.769597	 4.831202	 0.201308	 89.782160	 78.203870	 179.999900	-1.180614	 12.172570	 112.996800	-23.159000	 1.128622	 6.404354	 20.178950	-2.790115	-5.637975	 6.112037	 4.509576	-0.364401	 4.968462	 1.518543	-9.347576	 5.168945	 0.703820	 2.021906
-0.000539	 0.004234	 1.267844	 0.003207	 0.003944	-0.139169	 18.822950	-3.555264	 176.024400	 1.455239	-13.319990	-0.780413	-9.340096	 70.628880	 3.484023	-2.385833	 28.452760	 0.000004	-18.954550	-3.357386	-175.646800	-1.440215	-13.463650	 0.774638	 9.687028	 71.195280	-4.004550	 2.384658	 28.388730	 0.000004	 36.213440	 2.740011	-0.058954	 1.634025	 3.643529	 0.652665	-4.913650	-4.537510	-1.076510	-91.776190	 78.527450	-180.000000	 42.072610	 30.020490	-54.966470	-16.489260	 0.876563	-4.771240	-44.681350	 1.419441	-4.014958	-2.635965	 4.993658	 6.788941	-5.165319	 0.784187	 3.516649	-5.225038	 0.466231	 0.424329	-0.000002	-3.783157	-0.089647	-4.769598	 4.831200	 0.201308	 89.782160	 78.203870	 179.999900	-1.274174	 12.334420	 112.960100	-26.304110	 0.549173	 4.847130	 19.461690	-2.160387	-5.872825	 6.112037	 4.509576	-0.364401	 4.968462	 1.518543	-9.347576	 5.168945	 0.703820	 2.021906
-0.000519	 0.002386	 1.268270	 0.003207	 0.003944	-0.139174	 18.838940	-3.337469	 176.003100	 1.460863	-12.911330	-0.755625	-9.218291	 70.370750	 3.358037	-2.385833	 28.452760	 0.000004	-18.977020	-3.023492	-175.598900	-1.447145	-12.954540	 0.744298	 9.618372	 70.950440	-3.935615	 2.384658	 28.388730	 0.000004	 36.029810	 2.740000	-0.058951	 1.634026	 3.643564	 0.652682	-4.913660	-4.537524	-1.076522	-91.776180	 78.527450	 180.000000	 42.182760	 30.127330	-55.192700	-13.064340	 0.433176	-3.000868	-43.677230	 1.752801	-3.933555	-2.635965	 4.993658	 6.788941	-5.165319	 0.784187	 3.516649	-5.225038	 0.466231	 0.424329	-0.000002	-3.783157	-0.089647	-4.769597	 4.831202	 0.201308	 89.782170	 78.203900	 179.999900	-2.464854	 12.291770	 112.736800	-29.848350	 0.100885	 3.056685	 18.100240	-1.529738	-6.071471	 6.112037	 4.509576	-0.364401	 4.968462	 1.518543	-9.347576	 5.168945	 0.703820	 2.021906
